PathFileType	4	(X/Y/Z)	Walk9.trc
DataRate	CameraRate	NumFrames	NumMarkers	Units	OrigDataRate	OrigDataStartFrame	OrigNumFrames
200.000000	200.000000	4	61	mm	200.000000	606	817
Frame#	Times		RCAR		LTH3		LTB1		LBHD		RWRU		LWRU		LFA1		RTH2		LUA1		LElbow		LCAR		LTH2		RPSI		RTH3		C7		LElbowM		RFA1		RBHD		RToe		RTB2		RTB3		LTH1		RTB1		RMT5		RElbow		RASI		RLFC		RTB4		LWRR		RMT1		RTH4		T10		RBack		RLMAL		LPSI		CLAV		RMFC		RMMAL		RCAL		RUA1		LMFC		LACR1		LLFC		STRN		RWRR		RTH1		LTH4		LTB4		RElbowM		LASI		LTB3		LMT5		LFHD		RFHD		RACR1		LCAL		LMMAL		LTB2		LLMAL		LToe		LMT1
			X1	Y1	Z1	X2	Y2	Z2	X3	Y3	Z3	X4	Y4	Z4	X5	Y5	Z5	X6	Y6	Z6	X7	Y7	Z7	X8	Y8	Z8	X9	Y9	Z9	X10	Y10	Z10	X11	Y11	Z11	X12	Y12	Z12	X13	Y13	Z13	X14	Y14	Z14	X15	Y15	Z15	X16	Y16	Z16	X17	Y17	Z17	X18	Y18	Z18	X19	Y19	Z19	X20	Y20	Z20	X21	Y21	Z21	X22	Y22	Z22	X23	Y23	Z23	X24	Y24	Z24	X25	Y25	Z25	X26	Y26	Z26	X27	Y27	Z27	X28	Y28	Z28	X29	Y29	Z29	X30	Y30	Z30	X31	Y31	Z31	X32	Y32	Z32	X33	Y33	Z33	X34	Y34	Z34	X35	Y35	Z35	X36	Y36	Z36	X37	Y37	Z37	X38	Y38	Z38	X39	Y39	Z39	X40	Y40	Z40	X41	Y41	Z41	X42	Y42	Z42	X43	Y43	Z43	X44	Y44	Z44	X45	Y45	Z45	X46	Y46	Z46	X47	Y47	Z47	X48	Y48	Z48	X49	Y49	Z49	X50	Y50	Z50	X51	Y51	Z51	X52	Y52	Z52	X53	Y53	Z53	X54	Y54	Z54	X55	Y55	Z55	X56	Y56	Z56	X57	Y57	Z57	X58	Y58	Z58	X59	Y59	Z59	X60	Y60	Z60	X61	Y61	Z61

606	3.03	39.645	810.31	371.46	-43.678	609.03	-140.56	-98.125	362.76	-55.013	43.27	1626.3	-57.783	-15.09	846.94	354.28	236.16	885.21	-259.15	156.83	993.64	-284.76	200.08	716.06	178.5	74.329	1283.9	-250.94	80.541	1127.4	-286.74	318.41	882.22	-264.95	49.043	681.75	-132.18	-92.057	1010.8	74.86	157.84	604.73	194.27	17.222	1499.9	17.189	45.442	1106.3	-219.95	-28.934	983.86	343.49	51.759	1635.8	83.616	440.43	54.68	126.57	238.21	280.51	173.05	273.63	198.95	104.15	10.215	785.42	-165.31	258.06	383.97	118.76	345.08	27.34	175.58	-28.229	1131.4	311.36	124.57	1020.7	167.78	179.79	495.29	187.46	267.29	291.5	110.05	291.11	929.34	-214.24	394.11	48.467	102.9	138.43	696.77	213.28	-94.513	1280.5	19.674	-62.986	1415.1	146.58	246.99	67.209	141.42	-98.57	1010.9	-2.1547	145.73	1407.2	15.942	192.11	511.18	54.84	281.41	99.951	66.289	200.62	30.426	85.104	30.523	1276.6	277.14	-67.114	512.53	-0.85459	87.925	1450.7	-149.16	-84.607	510.31	-130.26	187.18	1233.8	12.078	51.322	844.98	315.16	108.94	787.96	220.84	-17.831	696.81	-152.79	-145.07	286.54	-53.512	-46.484	1114.8	234.21	104.7	1020.4	-118.73	-196.31	204.69	-54.887	-218.45	23.48	-127.02	223.6	1666	-26.838	227.02	1670	49.564	92.013	1444.4	180.26	-363.52	86.539	-53.603	-262.94	118.82	-15.05	-163.46	298.5	-126.24	-295.43	108.96	-97.124	-116.2	28.239	-60.259	-167.34	38.226	-44.72
607	3.035	46.547	809.93	372.28	-36.752	608.49	-140.16	-92.562	362.29	-55.05	48.351	1626.5	-56.456	-8.3026	846.48	355.3	238.91	884.49	-258.41	159.96	993.29	-283.73	206.38	716.5	179.02	78.501	1283.9	-249.8	84.246	1127.3	-285.45	321.14	881.17	-264.35	55.624	681.6	-131.62	-86.229	1010.8	75.863	164.04	605.27	194.85	22.497	1500	18.478	49.306	1106.4	-218.57	-22.208	983.43	344.66	57.051	1635.9	84.946	441.91	51.687	125.93	242.21	280.26	173.33	276.12	198.37	104.09	16.287	785.16	-164.5	262.6	383.54	118.9	345.57	26.345	175.78	-21.669	1130.9	312.6	130.68	1020.9	168.45	185.78	495.64	188.2	270.78	290.97	110.07	294.12	928.37	-213.56	395.03	46.594	102.53	144.76	697.28	213.77	-89.099	1280.5	20.945	-57.497	1414.8	147.97	248.17	67.027	141.52	-92.858	1010.6	-1.1914	151.01	1407.4	16.92	197.32	511.41	55.527	282.62	99.309	66.162	200.96	30.875	85.418	36.572	1276.3	278.29	-60.006	511.9	-0.7319	92.787	1450.9	-148.17	-77.488	509.81	-130.1	192.77	1234.1	12.843	57.905	844.57	315.91	115.35	788.54	221.41	-11.33	696.43	-152.17	-140.59	286.79	-53.567	-40.28	1114.3	235.58	110.32	1020.4	-117.67	-193	205.69	-54.954	-218.31	24.08	-126.74	228.71	1666.2	-25.737	232.25	1670.2	50.66	97.5	1444.3	181.36	-361.77	90.433	-53.497	-260.67	120.75	-15.204	-158.81	299.02	-126.28	-293.5	111.45	-97.222	-116.38	28.181	-60.245	-167.13	38.08	-44.597
608	3.04	53.587	809.63	373.04	-29.56	607.93	-139.79	-86.699	361.85	-55.177	53.441	1626.8	-55.134	-1.3798	846.08	356.27	241.52	883.78	-257.67	162.98	992.97	-282.67	212.63	717.04	179.56	82.653	1283.9	-248.65	87.907	1127.3	-284.11	323.72	880.07	-263.76	62.407	681.51	-131.03	-80.419	1011	76.863	170.22	605.91	195.52	27.78	1500.2	19.757	53.141	1106.5	-217.12	-15.376	983.07	345.78	62.343	1636.1	86.272	443.25	48.981	125.38	246.07	280.05	173.64	278.47	197.86	104.06	22.49	784.93	-163.67	267.01	383.16	119.07	345.96	25.556	176.02	-15.03	1130.5	313.8	136.76	1021.1	169.12	191.71	496.02	188.95	274.13	290.51	110.13	297.01	927.36	-212.89	395.84	44.978	102.23	151.04	697.9	214.33	-83.698	1280.6	22.201	-51.994	1414.7	149.36	249.2	66.925	141.61	-87.166	1010.5	-0.23957	156.28	1407.7	17.896	202.49	511.72	56.233	283.68	98.765	66.041	201.24	31.291	85.719	42.672	1276	279.42	-52.582	511.24	-0.6696	97.663	1451.1	-147.19	-70.054	509.3	-129.99	198.34	1234.5	13.612	64.6	844.24	316.59	121.71	789.22	222.01	-4.6339	696.05	-151.55	-135.82	287.1	-53.692	-34.015	1113.9	236.93	115.94	1020.5	-116.59	-189.43	206.79	-55.069	-218.14	24.779	-126.44	233.83	1666.6	-24.627	237.48	1670.4	51.765	103	1444.2	182.44	-359.74	94.598	-53.338	-258.15	122.81	-15.379	-153.91	299.62	-126.38	-291.36	114.1	-97.311	-116.59	28.121	-60.229	-166.89	37.925	-44.46
609	3.045	60.767	809.4	373.72	-22.1	607.37	-139.45	-80.525	361.43	-55.404	58.54	1627.1	-53.818	5.6805	845.76	357.19	243.98	883.08	-256.92	165.91	992.7	-281.59	218.82	717.66	180.1	86.789	1284.1	-247.48	91.527	1127.4	-282.73	326.13	878.95	-263.2	69.39	681.49	-130.43	-74.631	1011.2	77.86	176.36	606.62	196.27	33.065	1500.4	21.022	56.948	1106.8	-215.61	-8.4371	982.79	346.88	67.633	1636.3	87.594	444.45	46.561	124.91	249.77	279.89	173.95	280.68	197.42	104.04	28.824	784.73	-162.82	271.29	382.82	119.27	346.26	24.956	176.28	-8.3145	1130.2	314.98	142.83	1021.5	169.79	197.55	496.43	189.69	277.34	290.11	110.2	299.78	926.33	-212.22	396.54	43.611	101.97	157.25	698.61	214.93	-78.309	1280.8	23.441	-46.478	1414.6	150.75	250.09	66.891	141.7	-81.499	1010.4	0.70405	161.57	1408	18.867	207.62	512.11	56.944	284.6	98.31	65.92	201.48	31.668	85.999	48.823	1275.9	280.53	-44.827	510.54	-0.67556	102.55	1451.5	-146.21	-62.305	508.79	-129.92	203.91	1234.9	14.383	71.408	844	317.21	128.03	789.99	222.66	2.2587	695.69	-150.94	-130.76	287.47	-53.893	-27.689	1113.7	238.25	121.54	1020.7	-115.49	-185.57	207.99	-55.24	-217.91	25.592	-126.13	238.95	1667	-23.509	242.71	1670.7	52.877	108.51	1444.2	183.5	-357.42	99.035	-53.123	-255.33	125	-15.577	-148.76	300.31	-126.54	-288.98	116.93	-97.389	-116.84	28.062	-60.213	-166.63	37.765	-44.312
